<?xml version="1.0" encoding="UTF-8"?>
<svg width="194px" height="66px" viewBox="0 0 194 66" version="1.1" xmlns="http://www.w3.org/2000/svg" xmlns:xlink="http://www.w3.org/1999/xlink">
    <title>appstore</title>
    <g id="Page-1" stroke="none" stroke-width="1" fill="none" fill-rule="evenodd">
        <g id="Index" transform="translate(-350.000000, -521.000000)">
            <g id="Group-7" transform="translate(144.000000, 302.000000)">
                <g id="appstore" transform="translate(206.000000, 219.000000)">
                    <path d="M182.033163,0 L11.8502463,0 C1.69152709,0 -2.84217094e-14,3.57176471 -2.84217094e-14,12.0663529 L-2.84217094e-14,54.0093529 C-2.84217094e-14,62.5058824 3.47862069,66 11.836867,66 L182.035074,66 C190.399054,66 194,62.4922941 194,53.9977059 L194,12.0682941 C194,3.57176471 190.397143,0 182.033163,0 Z" id="Path" fill="#000000" fill-rule="nonzero"></path>
                    <path d="M50,41.5313742 C49.0438244,43.7799163 48.5853841,44.7695915 47.3541444,46.748942 C45.6345253,49.5200326 43.2132119,52.9641024 40.2118311,52.9918133 C37.5453924,53.0175449 36.8605387,51.1549761 33.2416669,51.176749 C29.622795,51.1985218 28.8668363,53.0254623 26.1985264,53 C23.2046304,52.9700405 20.9030728,49.8565222 19.1834538,47.0913696 C14.3782506,39.3521094 13.876773,30.2668908 16.8388589,25.4432137 C18.9458133,22.0110201 22.2652955,20.0039587 25.3920457,20.0039587 C28.5730602,20.0039587 30.573357,21.8487133 33.2042432,21.8487133 C35.7546684,21.8487133 37.3096231,20 40.9865017,20 C43.7670827,20 46.7123279,21.6012945 48.8117975,24.3704058 C41.9351925,28.3568176 43.05229,38.7464281 50,41.5234568" id="Path" fill="#FFFFFF"></path>
                    <path d="M38.0460751,16.7462881 C39.3134394,14.9957657 40.2772752,12.5236539 39.9275963,10 C37.8579229,10.1527173 35.4350206,11.5691706 34.0203296,13.4170503 C32.7369901,15.093123 31.6773032,17.5805065 32.0908828,19.9972582 C34.3504833,20.0717079 36.6881847,18.6208933 38.0460751,16.752015" id="Path" fill="#FFFFFF"></path>
                    <path d="M175.878591,44.372449 L165.994272,44.372449 C166.032561,45.7117347 166.511174,46.8864796 167.428197,47.6575255 C168.260984,48.3501276 169.34265,48.6658163 170.661707,48.6658163 C172.028018,48.6804643 173.384628,48.4350235 174.659085,47.942602 L175.177901,50.2251276 C173.780351,50.8392857 172.114777,51.1339286 170.200324,51.1339286 C167.902981,51.1339286 166.099567,50.4585459 164.790081,49.1077806 C163.480596,47.7570153 162.8233,45.9438776 162.818195,43.6683673 C162.818195,41.4279337 163.43082,39.5720663 164.648412,38.0816327 C165.934924,36.4987245 167.664313,35.7072704 169.836578,35.7072704 C171.979489,35.7072704 173.596563,36.4987245 174.687801,38.0816327 C175.558877,39.3443878 175.999201,40.9649235 175.999201,42.8131378 C176.006311,43.3354852 175.965942,43.8573988 175.878591,44.372449 L175.878591,44.372449 Z M161.832252,38.9368622 C161.481949,38.8721222 161.125865,38.8439097 160.769731,38.8526786 C159.609572,38.8526786 158.705951,39.2889031 158.074182,40.161352 C157.522819,40.9266582 157.237566,41.8966837 157.237566,43.0848214 L157.237566,50.6862245 L153.982996,50.6862245 L153.982996,40.7008929 C153.982996,39.0038265 153.912162,37.4846939 153.854728,35.9540816 L156.726407,35.9540816 L156.848932,39.0153061 L156.938911,39.0153061 C157.246663,38.0733214 157.814798,37.2375673 158.577683,36.6045918 C159.270838,36.0777719 160.115288,35.7879656 160.986064,35.7780612 C161.267022,35.7639398 161.548653,35.7716158 161.828423,35.8010204 L161.832252,38.9368622 Z M149.920528,48.9432398 C148.553609,50.4432398 146.743813,51.1932398 144.49114,51.1932398 C142.312493,51.1932398 140.576085,50.4719388 139.281915,49.0293367 C137.993488,47.5905612 137.350232,45.7633929 137.350232,43.5727041 C137.350232,41.2767857 138.015823,39.3973214 139.347006,37.9343112 C140.687123,36.4649235 142.469478,35.7436224 144.726618,35.7436224 C146.911008,35.7436224 148.658904,36.4572704 149.979876,37.9075255 C151.237671,39.3022959 151.877098,41.119898 151.877098,43.3297194 C151.877098,45.6122449 151.222356,47.4757653 149.920528,48.9432398 Z M136.370032,38.6326531 L132.924018,38.6326531 L132.924018,45.7117347 C132.924018,47.5408163 133.498353,48.4457908 134.773379,48.4457908 C135.252344,48.4588676 135.731015,48.4106444 136.197731,48.3022959 L136.272395,50.7895408 C135.44253,51.0601985 134.571873,51.1845009 133.699371,51.1568878 C132.405201,51.1568878 131.346509,50.7742347 130.615188,49.9668367 C129.883867,49.1594388 129.478003,47.8507653 129.478003,45.9815051 L129.478003,38.6326531 L127.372105,38.6326531 L127.372105,35.9540816 L129.478003,35.9540816 L129.478003,33.3290816 L132.924018,32.3533163 L132.924018,35.9540816 L136.370032,35.9540816 L136.370032,38.6326531 Z M124.789508,49.3622449 C123.444286,50.5637755 121.577057,51.1632653 119.18782,51.1607224 C116.970884,51.1607224 115.198101,50.7321429 113.857984,49.8826531 L114.623765,47.1390306 C116.062616,47.9891075 117.705925,48.4315932 119.377351,48.4190051 C120.623659,48.4190051 121.586629,48.1358418 122.277747,47.5809949 C122.96137,47.0384398 123.345335,46.2027673 123.311551,45.3309949 C123.32696,44.5458406 123.019754,43.7886733 122.461534,43.2359694 C121.887198,42.6619898 120.949116,42.1434949 119.624315,41.6498724 C116.028973,40.3131378 114.230026,38.3507653 114.227473,35.7627551 C114.185419,34.1607401 114.887257,32.6293808 116.128525,31.6147959 C117.404826,30.5395408 119.088907,30.0012755 121.180765,30 C123.049271,30 124.605721,30.3246173 125.850115,30.973852 L125.017328,33.6524235 C123.80283,33.0100616 122.445558,32.6849397 121.071641,32.7072704 C119.911483,32.7072704 119.000204,33.0019133 118.345461,33.5567602 C117.815299,34.0312575 117.515337,34.7109816 117.522246,35.4221939 C117.510327,36.2035626 117.858315,36.9470756 118.466071,37.4387755 C119.017434,37.9247449 120.012949,38.4515306 121.452617,39.0191327 C123.229229,39.7251276 124.515742,40.5631378 125.36193,41.5216837 C126.208118,42.4802296 126.606324,43.6741071 126.606324,45.09375 C126.606324,46.8443878 126.001357,48.2716837 124.789508,49.3622449 Z M105.754106,49.247449 C104.57626,50.5217253 102.908261,51.2301678 101.172821,51.1932398 C99.210507,51.1932398 97.8895347,50.494898 96.9323084,49.088648 L96.9323084,57 L93.6777389,57 L93.6777389,40.9094388 C93.6777389,39.3271684 93.6164764,37.8673469 93.5379839,35.9540816 L96.4288073,35.9540816 L96.6202526,38.4413265 L96.6776862,38.4413265 C97.7823253,36.7193878 99.4440702,35.7627551 101.682065,35.7627551 C103.381817,35.7321358 104.99944,36.4920248 106.060418,37.8195153 C107.232063,39.1970663 107.817248,41.0133929 107.815974,43.2684949 C107.814057,45.8035714 107.128683,47.7818878 105.754106,49.247449 L105.754106,49.247449 Z M89.4659432,49.247449 C88.291782,50.5212639 86.6268378,51.2298896 84.8942303,51.1932398 C82.926173,51.1932398 81.6166874,50.494898 80.6594611,49.088648 L80.6594611,57 L77.4048917,57 L77.4048917,40.9094388 C77.4048917,39.3271684 77.330228,37.8673469 77.2459921,35.9540816 L80.1444734,35.9540816 L80.3263464,38.4413265 L80.38378,38.4413265 C81.4884191,36.7193878 83.1520784,35.7627551 85.391988,35.7627551 C87.1417977,35.7627551 88.5967817,36.4343112 89.7722556,37.8195153 C90.9477295,39.2047194 91.5258942,41.0146684 91.5258942,43.2684949 C91.5258942,45.8035714 90.8405201,47.7818878 89.4659432,49.247449 L89.4659432,49.247449 Z M71.8529791,50.6862245 L69.9385265,44.755102 L63.2379424,44.755102 L61.4038967,50.6862245 L58,50.6862245 L64.6125193,30.2142857 L68.705619,30.2142857 L75.3583419,50.6862245 L71.8529791,50.6862245 Z M169.599186,37.9897959 C168.523264,37.9897959 167.650273,38.5408163 166.974472,39.4285714 C166.384838,40.1904838 166.042773,41.1145548 165.994272,42.0765306 L172.85567,42.0765306 C172.874815,40.9285714 172.664225,40.1728316 172.218157,39.4572704 C171.674761,38.5281275 170.670063,37.9664023 169.593443,37.9897959 L169.599186,37.9897959 Z M66.5690899,33.0841837 L66.5116563,33.0841837 C66.3048954,34.0408163 65.9832674,35.315051 65.5314566,37.0235969 L63.8237649,42.4591837 L69.3431317,42.4591837 L67.6201244,37.0235969 C67.4248502,36.4725765 67.0668476,34.997449 66.5690899,33.0841837 Z M100.613801,38.3571429 C99.8052199,38.3540994 99.0219911,38.6389799 98.4045224,39.1607143 C97.740796,39.7026616 97.2788725,40.4520637 97.0931224,41.2882653 C97.0007209,41.6170248 96.9467562,41.955379 96.9323084,42.2965561 L96.9323084,44.755102 C96.9064213,45.7604762 97.2644096,46.7380057 97.9335671,47.4891582 C98.5865069,48.2219625 99.5309823,48.6276879 100.512335,48.5969388 C101.758643,48.5969388 102.725442,48.122449 103.418474,47.1658163 C104.111506,46.2091837 104.459936,44.9502551 104.459936,43.3794643 C104.459936,41.9406888 104.132565,40.7506378 103.483565,39.8188776 C102.833709,38.8804548 101.755454,38.3312379 100.613801,38.3571429 L100.613801,38.3571429 Z M144.602178,38.1505102 C143.285035,38.1505102 142.276119,38.7359694 141.58883,39.9126276 C140.993435,40.8826531 140.700524,42.065051 140.700524,43.463648 C140.700524,44.8278061 140.993435,45.9891582 141.58883,46.9610969 C142.293349,48.1358418 143.289502,48.7225765 144.577291,48.7213031 C145.831257,48.7213031 146.821029,48.1281888 147.529377,46.9247449 C148.143916,45.9413265 148.450228,44.7608418 148.450228,43.4081633 C148.450228,42.0554847 148.155403,40.8826531 147.56958,39.9126276 C146.872719,38.7359694 145.888691,38.1505102 144.602178,38.1505102 Z M84.3160656,38.3571429 C83.5082593,38.3552217 82.7260086,38.6399932 82.1087018,39.1607143 C81.4482143,39.7035324 80.9902263,40.4531154 80.8087884,41.2882653 C80.718326,41.6171923 80.6669202,41.9556177 80.6556322,42.2965561 L80.6556322,44.755102 C80.6263465,45.759313 80.9809542,46.7369579 81.6473187,47.4891582 C82.2995063,48.2218808 83.2433797,48.6276488 84.2241719,48.5969388 C85.4628228,48.5969388 86.4353647,48.122449 87.1264821,47.1658163 C87.8175995,46.2091837 88.1602865,44.9502551 88.1602865,43.3794643 C88.1602865,41.9406888 87.8386584,40.7506378 87.1877446,39.8188776 C86.5387359,38.880491 85.4610345,38.3311898 84.3198945,38.3571429 L84.3160656,38.3571429 Z" id="Shape" fill="#FFFFFF"></path>
                    <path d="M63.8120378,22.8823742 L62.9301561,26 L61,26 L64.283484,15 L66.6721446,15 L70,26 L67.9940427,26 L67.0696385,22.8823742 L63.8120378,22.8823742 Z M66.7479458,21.3642432 L65.9418652,18.6554213 C65.7440427,17.9866498 65.5721035,17.23453 65.4241988,16.5994949 L65.3946179,16.5994949 C65.2411668,17.23453 65.0895645,18.0025257 64.9083813,18.6554213 L64.1263353,21.3642432 L66.7479458,21.3642432 Z" id="Shape" fill="#FFFFFF" fill-rule="nonzero"></path>
                    <path d="M72.180912,18 L73.4747072,22.0569288 C73.7039621,22.7640449 73.8734114,23.4052434 74.0169449,24.054432 L74.0647894,24.054432 C74.21231,23.3972534 74.3937204,22.772035 74.6070272,22.0569288 L75.868926,18 L78,18 L74.9499128,26 L72.9663593,26 L70,18 L72.180912,18 Z" id="Path" fill="#FFFFFF" fill-rule="nonzero"></path>
                    <path d="M82.4076655,25.8252196 L82.2926829,24.9764939 L82.2491289,24.9764939 C81.7418854,25.6435465 80.9849148,26.0201176 80.1933798,25.9991702 C78.7891986,25.9991702 78,24.8828282 78,23.7186977 C78,21.7842148 79.5679443,20.8093272 82.141115,20.8265311 L82.141115,20.7003692 C82.141115,20.197633 81.9547038,19.3622881 80.7229965,19.3622881 C80.0620033,19.3653224 79.4139244,19.5633974 78.8466899,19.9357514 L78.4982578,18.6779552 C79.2706251,18.2138981 80.1405253,17.9805521 81.0209059,18.0012685 C83.2560976,18.0012685 83.9006969,19.5572656 83.9006969,21.2241323 L83.9006969,23.9920486 C83.8919268,24.6068773 83.9251206,25.2215637 84,25.8309542 L82.4076655,25.8252196 Z M82.1777003,22.0881504 C80.9303136,22.0556541 79.738676,22.353855 79.738676,23.5179856 C79.738676,24.2730456 80.1829268,24.6190351 80.7421603,24.6190351 C81.3598469,24.6314848 81.9146703,24.206351 82.1167247,23.5657742 C82.1559597,23.4284799 82.1753584,23.2852912 82.174216,23.1414113 L82.1777003,22.0881504 Z" id="Shape" fill="#FFFFFF" fill-rule="nonzero"></path>
                    <polygon id="Path" fill="#FFFFFF" fill-rule="nonzero" points="86 15 88 15 88 26 86 26"></polygon>
                    <path d="M92,16.0560542 C92,16.6382524 91.607093,17.109833 90.9851371,17.109833 C90.7250017,17.124463 90.4710701,17.0192074 90.2842325,16.8193055 C90.0973949,16.6194035 89.9945021,16.3428842 90.0002267,16.0560542 C90.0227278,15.4657795 90.4637342,15 91.0001134,15 C91.5364926,15 91.977499,15.4657795 92,16.0560542 L92,16.0560542 Z M90.1006559,26 L90.1006559,18.2276536 L91.8978089,18.2276536 L91.8978089,26 L90.1006559,26 Z" id="Shape" fill="#FFFFFF" fill-rule="nonzero"></path>
                    <path d="M95,25.8330241 C95.0318957,25.3302412 95.0657848,24.5064935 95.0657848,23.742115 L95.0657848,15 L97.0811914,15 L97.0811914,19.4230056 L97.1150806,19.4230056 C97.6074697,18.7050093 98.4746328,18.2319109 99.6727133,18.2319109 C101.624329,18.2319109 103.01777,19.742115 102.999829,22.0018553 C102.999829,24.6716141 101.179783,26 99.3776785,26 C98.3450567,26 97.4260632,25.6289425 96.8519414,24.7179963 L96.8300132,24.7179963 L96.7303392,25.8311688 L95,25.8330241 Z M97.0811914,22.7625232 C97.0811914,22.9109268 97.0978604,23.0589239 97.1310284,23.2040816 C97.3367195,23.9717881 98.0750305,24.5123305 98.9251589,24.5176252 C100.187031,24.5176252 100.956513,23.5714286 100.956513,22.0760668 C100.956513,20.7643785 100.284711,19.6957328 98.9411068,19.6957328 C98.0755326,19.7162987 97.3359574,20.2822399 97.1469762,21.0686456 C97.1062573,21.2286175 97.0842014,21.3922109 97.0811914,21.5565863 L97.0811914,22.7625232 Z" id="Shape" fill="#FFFFFF" fill-rule="nonzero"></path>
                    <polygon id="Path" fill="#FFFFFF" fill-rule="nonzero" points="104 15 106 15 106 26 104 26"></polygon>
                    <path d="M108.848262,22.5510254 C108.893851,23.9372022 109.972796,24.5345602 111.190407,24.5345602 C111.909266,24.5542939 112.625336,24.4367097 113.300807,24.188016 L113.581941,25.5282422 C112.73284,25.8527079 111.83055,26.0125099 110.922571,25.999236 C108.453156,25.999236 107,24.4675489 107,22.1259822 C107,20.0007663 108.282196,18 110.719319,18 C113.188734,18 113.999842,20.0467169 113.999842,21.7315728 C114.002053,22.0060216 113.981083,22.2801621 113.937157,22.5510254 L108.848262,22.5510254 Z M112.19147,21.1973969 C112.206667,20.4889916 111.893241,19.3229948 110.612944,19.3229948 C109.425725,19.3229948 108.926144,20.4104926 108.848262,21.1973969 L112.19147,21.1973969 Z" id="Shape" fill="#FFFFFF" fill-rule="nonzero"></path>
                    <path d="M127,21.9283497 C127,24.7427753 124.958159,26 122.95176,26 C120.716958,26 119,24.5058514 119,22.0544543 C119,19.5400048 120.699237,18 123.079744,18 C125.424809,18 127,19.6068784 127,21.9283497 Z M121.055624,22.0066874 C121.055624,23.4855505 121.801871,24.6013852 123.024612,24.6013852 C124.15875,24.6013852 124.952252,23.5161213 124.952252,21.9761166 C124.952252,20.7819441 124.402904,19.4139002 123.042333,19.4139002 C121.612848,19.4158108 121.045779,20.7341772 121.045779,22.0066874 L121.055624,22.0066874 Z" id="Shape" fill="#FFFFFF" fill-rule="nonzero"></path>
                    <path d="M127.063115,20.5066572 C127.063115,19.6083502 127.045902,18.8526006 127,18.1788703 L128.698361,18.1788703 L128.792077,19.3505751 L128.839891,19.3505751 C129.357107,18.4870139 130.287454,17.9721852 131.278415,18.0011617 C132.617213,18.0011617 134,18.8857989 134,21.358096 L134,26 L132.064481,26 L132.064481,21.5826728 C132.064481,20.459789 131.655191,19.6083502 130.601366,19.6083502 C129.908216,19.6252309 129.302035,20.0896362 129.09235,20.7644323 C129.032305,20.972844 129.005821,21.1898325 129.013934,21.4069171 L129.013934,26 L127.063115,26 L127.063115,20.5066572 Z" id="Path" fill="#FFFFFF" fill-rule="nonzero"></path>
                    <path d="M141.47604,16 L141.47604,18.1857103 L143,18.1857103 L143,19.6301133 L141.47604,19.6301133 L141.47604,23.0099398 C141.47604,23.936574 141.683564,24.4237734 142.296634,24.4237734 C142.50731,24.4261063 142.717277,24.3939704 142.920792,24.3282442 L142.947723,25.8070377 C142.572614,25.9476587 142.180756,26.012222 141.788119,25.9980963 C141.20198,25.9980963 140.706139,25.7630942 140.406733,25.3695135 C140.067723,24.9300787 139.912475,24.2384466 139.912475,23.2334784 L139.912475,19.6301133 L139,19.6301133 L139,18.1857103 L139.912475,18.1857103 L139.912475,16.466183 L141.47604,16 Z" id="Path" fill="#FFFFFF" fill-rule="nonzero"></path>
                    <path d="M145,15 L146.967484,15 L146.967484,19.49118 L146.998347,19.49118 C147.513093,18.7408153 148.374759,18.2879417 149.299532,18.2817263 C150.615045,18.2817263 152,19.1351259 152,21.5521493 L152,25.9981161 L150.044089,25.9981161 L150.044089,21.7706799 C150.044089,20.6704915 149.631303,19.849118 148.553045,19.849118 C147.867782,19.8512449 147.260867,20.2815765 147.046569,20.9172804 C146.984925,21.1025791 146.958131,21.2972452 146.967484,21.491865 L146.967484,26 L145,26 L145,15 Z" id="Path" fill="#FFFFFF" fill-rule="nonzero"></path>
                    <path d="M155.846822,22.5510018 C155.894323,23.9371715 156.971636,24.5345264 158.19145,24.5345264 C158.909887,24.5545274 159.625561,24.436932 160.300476,24.187984 L160.581679,25.5282033 C159.732464,25.8530245 158.829882,26.0128378 157.921647,25.9991947 C155.451617,25.9991947 154,24.4675155 154,22.1259609 C154,20.000756 155.280615,18 157.718345,18 C160.188374,18 160.999684,20.0467063 160.999684,21.7315535 C161.002874,22.0060339 160.981892,22.2802584 160.936983,22.5510018 L155.846822,22.5510018 Z M159.190862,21.1973803 C159.206063,20.4889787 158.894459,19.3229879 157.613843,19.3229879 C156.424429,19.3229879 155.924723,20.4104802 155.846822,21.1973803 L159.190862,21.1973803 Z" id="Shape" fill="#FFFFFF" fill-rule="nonzero"></path>
                </g>
            </g>
        </g>
    </g>
</svg>