<svg width="194" height="66" viewBox="0 0 194 66" xmlns="http://www.w3.org/2000/svg">
    <g fill-rule="nonzero" fill="none">
        <path d="M182.033 0H11.85C1.692 0 0 3.572 0 12.066V54.01C0 62.506 3.479 66 11.837 66h170.198C190.4 66 194 62.492 194 53.998v-41.93C194 3.572 190.397 0 182.033 0z" fill="#000"/>
        <path d="M16.769 14c-.462.162-.77.596-.769 1.082V52.92c0 .485.308.918.769 1.08L37 33.993 16.769 14z" fill="#00D6FF"/>
        <path d="m43 28.102-26-14.94a1.18 1.18 0 0 0-1-.091L37.066 34 43 28.102z" fill="#00F076"/>
        <path d="m17 53.84 26-14.933L37.054 33 16 53.93c.33.118.696.085 1-.09z" fill="#FF3A44"/>
        <path d="m42.546 38 7.887-4.527a1.116 1.116 0 0 0 0-1.942L42.535 27 37 32.494 42.546 38z" fill="#FFD000"/>
        <path d="M95.537 37.234c-3.603 0-6.455 2.77-6.455 6.617a6.653 6.653 0 0 0 1.877 4.692 6.328 6.328 0 0 0 4.578 1.923c3.602 0 6.454-2.77 6.454-6.615 0-4-2.852-6.617-6.454-6.617zm0 10.462c-1.953 0-3.603-1.692-3.603-3.999 0-2.306 1.65-4 3.603-4 1.953 0 3.602 1.538 3.602 4 0 2.31-1.651 4.001-3.602 4.001v-.002zM81.57 37.234c-3.601 0-6.453 2.77-6.453 6.617a6.652 6.652 0 0 0 1.875 4.694 6.326 6.326 0 0 0 4.578 1.923c3.604 0 6.456-2.77 6.456-6.615.005-4.001-2.847-6.62-6.456-6.62zm0 10.462c-1.95 0-3.601-1.692-3.601-3.999 0-2.306 1.65-4 3.601-4 1.95 0 3.604 1.538 3.604 4 .005 2.31-1.645 4.001-3.604 4.001v-.002zm-16.662-8.47v2.77h6.455c-.15 1.538-.75 2.77-1.5 3.545-.902.922-2.403 2-4.955 2-4.051 0-7.055-3.231-7.055-7.386 0-4.154 3.154-7.385 7.055-7.385 2.102 0 3.753.922 4.954 2l1.951-2C70.162 31.23 68.061 30 65.06 30 59.655 30 55 34.616 55 40.155c0 5.54 4.66 10.16 10.065 10.16 3.001 0 5.102-.922 6.905-2.924 1.8-1.846 2.4-4.462 2.4-6.461 0-.617 0-1.232-.15-1.695l-9.313-.01zm68.167 2.165c-.611-1.54-2.114-4.157-5.414-4.157s-6.005 2.616-6.005 6.617c0 3.692 2.702 6.615 6.305 6.615 2.852 0 4.653-1.846 5.254-2.923l-2.102-1.539c-.75 1.078-1.65 1.846-3.152 1.846-1.5 0-2.402-.615-3.152-2l8.556-3.691-.29-.768zm-8.717 2.147c0-2.46 1.952-3.846 3.303-3.846 1.05 0 2.1.615 2.4 1.38l-5.703 2.466zm-7.055 6.304h2.852V30.619h-2.852v19.223zm-4.503-11.23a4.883 4.883 0 0 0-3.46-1.538c-3.151 0-6.15 2.924-6.15 6.617a6.457 6.457 0 0 0 1.767 4.54 6.143 6.143 0 0 0 4.384 1.922 4.265 4.265 0 0 0 3.303-1.539h.15v.924c0 2.46-1.345 3.846-3.46 3.846-1.65 0-2.851-1.231-3.15-2.307l-2.403 1.076c.751 1.694 2.552 3.847 5.706 3.847 3.301 0 6.003-2 6.003-6.77V37.542h-2.69v1.07zm-3.302 9.079c-1.952 0-3.603-1.693-3.603-4 0-2.306 1.65-4 3.603-4 1.953 0 3.46 1.692 3.46 4 0 2.31-1.51 4.007-3.46 4.007v-.007zm36.626-17.08h-6.755v19.235h2.852v-7.224h3.903c3.152 0 6.15-2.31 6.15-6 0-3.693-2.998-6.003-6.15-6.003v-.008zm.15 9.233h-4.053v-6.61h4.053c1.768-.004 3.225 1.421 3.302 3.232-.15 1.694-1.345 3.386-3.302 3.386v-.008zm17.264-2.77c-2.102 0-4.203.924-4.954 2.924l2.55 1.085c.6-1.077 1.5-1.379 2.552-1.379 1.5 0 2.852.922 3.002 2.46v.156c-.45-.309-1.651-.77-2.852-.77-2.702 0-5.404 1.539-5.404 4.308 0 2.617 2.25 4.309 4.652 4.309 1.953 0 2.852-.924 3.604-1.846h.15v1.539h2.702v-7.392c-.3-3.386-2.852-5.386-6.004-5.386l.002-.008zm-.302 10.617c-.9 0-2.25-.461-2.25-1.693 0-1.538 1.65-2 3.002-2 1.2 0 1.8.308 2.552.615-.3 1.854-1.803 3.085-3.304 3.085v-.007zm15.76-10.156-3.154 8.31h-.15l-3.302-8.31h-2.992l4.952 11.694-2.858 6.472h2.852L182 37.543l-3.006-.008zM153.78 49.854h2.852V30.619h-2.852v19.235zM61.117 20.535h4.787c.03.127.053.255.068.385.018.151.028.303.028.455a5.211 5.211 0 0 1-.287 1.736 4.016 4.016 0 0 1-.9 1.457 4.502 4.502 0 0 1-1.574 1.055 5.443 5.443 0 0 1-2.087.376 5.352 5.352 0 0 1-2.001-.372 4.99 4.99 0 0 1-1.637-1.041A4.913 4.913 0 0 1 56 21a4.867 4.867 0 0 1 .41-1.998 5 5 0 0 1 1.104-1.585 4.99 4.99 0 0 1 1.637-1.04 5.666 5.666 0 0 1 4.13.024 4.746 4.746 0 0 1 1.602 1.111l-1.268 1.217a3.52 3.52 0 0 0-3.737-.783 3.118 3.118 0 0 0-1.77 1.699 3.575 3.575 0 0 0 0 2.713c.166.39.411.743.722 1.037.305.285.664.51 1.056.661a3.834 3.834 0 0 0 2.598.014c.34-.138.65-.334.92-.579.193-.173.352-.379.47-.607.137-.26.24-.537.307-.823h-3.064v-1.527zM69.788 17.793v2.317h3.79v1.786h-3.79v2.317H74V26h-6V16h5.994v1.787zM76.616 26v-8.207H74V16h7v1.787h-2.618v8.207zM84 16h2v10h-2zM90.617 26v-8.207H88V16h7v1.787h-2.617v8.207zM103 26a5.031 5.031 0 0 1-1.984-.386 4.853 4.853 0 0 1-1.585-1.062 4.914 4.914 0 0 1-1.049-1.59 5.204 5.204 0 0 1 0-3.916 4.841 4.841 0 0 1 2.634-2.659 5.278 5.278 0 0 1 3.97 0 4.859 4.859 0 0 1 2.634 2.655 5.235 5.235 0 0 1 0 3.916 4.847 4.847 0 0 1-2.634 2.652A5.047 5.047 0 0 1 103 26zm0-1.712a3.26 3.26 0 0 0 1.252-.241 3.029 3.029 0 0 0 1.697-1.704c.329-.865.329-1.82 0-2.686a3.029 3.029 0 0 0-1.697-1.704 3.365 3.365 0 0 0-2.507 0c-.379.154-.724.38-1.016.667a3.056 3.056 0 0 0-.683 1.037c-.329.865-.329 1.82 0 2.686.154.388.387.741.683 1.037.292.286.637.513 1.016.667.398.163.825.245 1.255.24zM110 16h2.168l3.982 6.699h.112l-.112-1.924V16H118v9.994h-1.96l-4.208-7.071h-.11l.11 1.926V26H110z" fill="#FFF"/>
    </g>
</svg>
