<svg width="64" height="57" viewBox="0 0 64 57" xmlns="http://www.w3.org/2000/svg" xmlns:xlink="http://www.w3.org/1999/xlink">
    <defs>
        <path id="99myivs8za" d="M0 0h4.798v3.559H0z"/>
        <path id="hdyw7nshmc" d="M0 0h9.27v9.064H0z"/>
        <path id="gpizc13kwe" d="M0 0h8.671v5.374H0z"/>
        <path id="627ifjp3gg" d="M0 0h12.664v1.15H0z"/>
    </defs>
    <g fill="none" fill-rule="evenodd">
        <g fill="#C69C5D">
            <path d="M38.478 22.666c.271.54.859.858 1.358 1.186.481.316.963.631 1.448.942.242.154.485.309.73.462.207-.446.44-.877.7-1.293a9.292 9.292 0 0 0-2.839-1.56 5.699 5.699 0 0 0-.762-.2.089.089 0 0 1-.069-.008c-.002 0-.003-.002-.005-.004-.429-.062-.803-.007-.56.475"/>
            <path d="M49.123 28.858c-1.035-.211-2.095-.686-3.062-1.136a34.264 34.264 0 0 1-3.157-1.687 87.159 87.159 0 0 1-3.04-1.927c-.413-.27-.9-.533-1.24-.896-.155-.166-.36-.411-.415-.649a273.852 273.852 0 0 1-2.062 4.134A276.521 276.521 0 0 1 23.221 49.33c1.923.294 3.865.447 5.808.542 2.703.134 5.41.228 8.115.279l.611.009a510.256 510.256 0 0 1 12.03-21.347c-.19.076-.423.094-.662.045"/>
            <path d="m42.983 23.923.03.023c.104.086-.013.213-.12.156-.254.41-.484.834-.687 1.273 1.753 1.09 3.567 2.105 5.494 2.818.5.186 1.095.465 1.625.488.726.031.847-.654.414-1.168-.377-.449-.882-.825-1.344-1.191a26.557 26.557 0 0 0-1.452-1.079 27.557 27.557 0 0 0-6.27-3.222l-.08.413a.096.096 0 0 1-.011.028c.817.351 1.58.807 2.279 1.363.059.002.118.044.122.098M51.432 5.622c.07-.084.12-.197.175-.292.027-.046.096-.007.071.04-.05.099-.12.2-.152.306-.003.008-.007.013-.01.018.101.073.204.144.31.212v.001c.064-.094.117-.194.178-.29.033-.052.109-.009.083.048-.05.104-.107.205-.153.311.11.07.218.141.328.21.07-.099.143-.197.217-.292.034-.045.102.01.076.058a7.646 7.646 0 0 1-.18.305l.367.229c.081-.096.172-.187.256-.278.045-.048.11.02.071.07-.07.092-.14.187-.214.276l.409.247c.077-.111.151-.225.227-.337.034-.049.112-.007.082.047l-.2.355.342.201.003-.005c.047-.054.105-.103.143-.165.031-.05.055-.104.084-.156.028-.049.103-.019.09.037a.885.885 0 0 1-.19.365l.271.155c.03-.05.066-.097.097-.146.04-.061.079-.123.123-.182.037-.048.098.013.078.06-.03.074-.07.144-.105.216-.021.043-.04.085-.063.126.136.078.27.156.407.233.082-.106.181-.203.272-.301.05-.054.119.022.077.078-.072.098-.144.2-.223.294.163.091.328.18.492.27.078-.119.16-.236.24-.353.031-.045.12-.021.097.039-.05.132-.123.268-.206.384.112.061.223.124.335.184.08-.114.157-.228.235-.345.037-.055.111-.01.088.05a2 2 0 0 1-.192.365c.137.074.274.148.413.221.048-.079.106-.153.16-.228.045-.065.086-.138.155-.179.031-.018.062.011.057.044-.014.1-.09.19-.141.273a4.126 4.126 0 0 1-.1.158c.102.053.205.104.31.153a24.846 24.846 0 0 0 3.187-4.701c.052-.1.117-.2.126-.304-.006.004-.012.008-.02.01-.479.126-.921-.002-1.347-.18a22.937 22.937 0 0 1-1.71-.795c-1.015-.524-2.187-1.06-2.851-2.066-.064-.097.095-.202.158-.106.622.942 1.737 1.456 2.687 1.948.5.258 1.007.503 1.523.725.467.201.961.432 1.499.291h.017a1.877 1.877 0 0 0-.136-.185 8.187 8.187 0 0 0-.72-.786 9.532 9.532 0 0 0-1.752-1.312 13.013 13.013 0 0 0-1.985-.944c-.292-.11-.597-.253-.911-.295-.196-.026-.437-.025-.586.171-.129.171-.227.369-.332.556a109.196 109.196 0 0 0-2.429 4.554c-.018.037-.047.051-.075.052.117.1.238.195.362.286l.005-.009M50.911 48.051c.01.083.012.172-.002.27a.43.43 0 0 0 .002-.27"/>
        </g>
        <g transform="translate(0 48.6)">
            <mask id="6ioswlynib" fill="#fff">
                <use xlink:href="#99myivs8za"/>
            </mask>
            <path d="M4.652 3.301c-1.11-.142-2.113-.452-2.969-.939C.751 1.832-.082.951.47.135.54.033.312-.058.236.046-.32.798.184 1.605.943 2.211c.891.71 2.23 1.181 3.601 1.345.255.03.365-.222.108-.255" fill="#000" mask="url(#6ioswlynib)"/>
        </g>
        <path d="M57.557 8.75c.124.342-.218.374-.461.358a.27.27 0 0 1-.143.028.558.558 0 0 1-.082.008c-.13.003-.41-.007-.432-.179-.03.03-.06.06-.092.089-.015.014-.047.013-.077.001l.18.08c.344.144 1.063.277 1.253-.077a.333.333 0 0 0-.088-.284c-.07-.076.017-.185.094-.156-.073-.211-.252-.404-.426-.566l-.117.139c.168.164.316.35.391.558M50.077 4.276a.364.364 0 0 0-.3.048.09.09 0 0 1-.014.043c.018.014.023.033.014.052.108-.114.39-.102.485-.088.187.028.368.109.54.181l.141.06.085-.164-.32-.134a1.964 1.964 0 0 0-.444-.13c.063.048-.078.164-.187.132M49.735 4.842c.059.083.12.164.186.243.128.153.267.295.414.43.293.266.615.498.945.715a44.755 44.755 0 0 0 2.55 1.53c.794.448 1.6.924 2.435 1.293-.049-.02-.09-.07-.04-.128l.058-.067a9.293 9.293 0 0 1-.312-.152c-.017.024-.032.048-.05.07-.052.065-.15-.016-.113-.084l.032-.053-.414-.22-.028.041c-.055.08-.187.004-.13-.073l.026-.038-.336-.183-.024.035c-.051.067-.165-.02-.118-.09l.011-.016c-.164-.089-.33-.176-.493-.267l-.031.038c-.064.07-.157-.03-.102-.101l.006-.008c-.136-.076-.272-.154-.408-.232a.526.526 0 0 1-.046.07c-.055.07-.14-.017-.113-.085a.445.445 0 0 1 .029-.058l-.272-.155c-.007.009-.014.019-.021.026-.067.068-.165-.029-.11-.1a73.094 73.094 0 0 1-.342-.201l-.01.017c-.04.074-.16.003-.113-.064l.012-.018a52.45 52.45 0 0 1-.41-.245c-.015.019-.03.039-.046.057-.058.064-.148-.029-.095-.094.01-.011.02-.02.028-.031l-.369-.227-.01.016c-.047.074-.167.004-.117-.067l.014-.02a40.29 40.29 0 0 1-.329-.209c0 .003-.002.006-.003.008-.034.078-.16.006-.113-.063l.009-.013-.002-.001a9.687 9.687 0 0 1-.31-.211c-.038.053-.128-.002-.09-.063a6.28 6.28 0 0 1-.363-.285.087.087 0 0 1-.085-.068c-.042.044-.125.048-.155-.015-.086-.183-.321-.219-.42-.396a.368.368 0 0 1-.04-.264 3.398 3.398 0 0 1-.144-.216.092.092 0 0 0-.029-.03.152.152 0 0 1 .029-.083.12.12 0 0 1-.06.027.534.534 0 0 0-.046.01c-.007.011-.015.02-.02.034a.102.102 0 0 1-.033.043l-.032.05c.005.009.011.018.02.026.058.066.092.142.143.215" fill="#000"/>
        <path d="M49.777 4.419c.009-.02.004-.038-.014-.052a.096.096 0 0 1-.032.033.228.228 0 0 0-.074.075l.046-.011a.12.12 0 0 0 .06-.027.06.06 0 0 0 .014-.018M57.744 8.641a.088.088 0 0 0-.035-.023c-.077-.029-.163.08-.094.156a.333.333 0 0 1 .088.284.639.639 0 0 1-.076.214c-.12.219-.363.269-.59.267-.41-.004-.838-.25-1.204-.408a22.271 22.271 0 0 1-5.54-3.457c-.112-.094-.725-.613-.805-.944-.044.069-.086.14-.126.213a.462.462 0 0 0 .027.068c.223.453.757.786 1.136 1.097a22.55 22.55 0 0 0 4.684 2.944c.495.233 1.008.484 1.538.628.279.075.574.063.809-.087.056-.118.097-.249.117-.397.016-.117.19-.074.178.04a.574.574 0 0 0-.107-.595" fill="#000"/>
        <g transform="translate(50.522)">
            <mask id="dg6yyu4ped" fill="#fff">
                <use xlink:href="#hdyw7nshmc"/>
            </mask>
            <path d="M.338 4.734c.024.016.047.032.069.05.097.076-.037.213-.135.14-.001.003-.001.007-.003.01-.07.141-.144.28-.221.417a.093.093 0 0 1-.019.022L.023 5.4A.087.087 0 0 1 0 5.44c.01.042.047.069.086.068.028 0 .057-.014.076-.05.776-1.53 1.588-3.04 2.436-4.53.105-.187.204-.383.334-.553.148-.196.39-.197.587-.17.315.041.621.184.914.293.69.256 1.356.57 1.991.938a9.552 9.552 0 0 1 1.758 1.306c.257.242.496.505.722.78.05.06.095.12.137.185.092-.007.125.129.044.173-.01.104-.074.203-.126.301-.098.187-.2.371-.302.555a24.702 24.702 0 0 1-2.896 4.12l-.057.068c-.05.058-.01.107.04.128l.005.003c.03.01.061.012.076-.002l.093-.09a.195.195 0 0 1 .002-.061.484.484 0 0 1 .199-.295.222.222 0 0 1 .11-.067c.02-.01.04-.02.062-.028h.004a.115.115 0 0 1 .037-.1l-.004-.054c-.007-.073.084-.125.144-.088l.067.045.106-.125c.039-.046.078-.092.116-.14.904-1.108 1.608-2.4 2.29-3.671.113-.209.297-.478.183-.71-.162-.327-.45-.593-.694-.847C7.97 2.23 7.306 1.74 6.61 1.32A13.066 13.066 0 0 0 4.484.311C3.999.127 3.295-.25 2.81.247c-.261.267-.434.717-.618 1.043A101.886 101.886 0 0 0 .507 4.408l-.085.165-.084.161" fill="#000" mask="url(#dg6yyu4ped)"/>
        </g>
        <path d="M58.042 3.419a23.868 23.868 0 0 1-1.528-.721c-.953-.49-2.072-1-2.696-1.938-.064-.095-.223.009-.16.105.668 1.001 1.844 1.534 2.861 2.056.56.287 1.134.55 1.716.79.427.178.871.304 1.35.18.01-.002.015-.007.022-.01.08-.044.048-.18-.045-.173h-.017c-.54.14-1.035-.09-1.503-.29M42.529 24.01l-.03-.023a.08.08 0 0 1-.012.052l-.077.126c.107.057.223-.07.119-.155" fill="#000"/>
        <path d="M38.543 22.265c-.104-.064-.013-.232.097-.173.088.047.05.163-.023.184.314.054.639.16.765.2a9.36 9.36 0 0 1 2.848 1.551l.058-.094c.022-.033.055-.044.089-.043a10.013 10.013 0 0 0-2.287-1.356.092.092 0 0 0 .011-.028l.081-.411a27.743 27.743 0 0 1 6.29 3.205c.5.34.983.7 1.457 1.073.463.364.97.738 1.348 1.184.434.512.314 1.193-.415 1.162-.532-.023-1.128-.3-1.63-.485-1.934-.71-3.754-1.72-5.512-2.803l-.032.067c-.054.117-.253.01-.2-.107l.039-.079a142.032 142.032 0 0 1-2.185-1.396c-.5-.326-1.09-.643-1.362-1.179-.243-.48.132-.534.563-.472m-.588-.125c-.081.165-.164.33-.246.494.056.237.262.481.417.646.34.36.83.622 1.244.891a87.552 87.552 0 0 0 3.05 1.916 34.476 34.476 0 0 0 3.167 1.679c.97.447 2.034.92 3.072 1.13.24.048.473.03.664-.045.104-.172.206-.345.31-.516.032-.055.09-.059.134-.037a.862.862 0 0 0-.042-.343c-.12-.374-.392-.66-.695-.93-.448-.4-.926-.775-1.407-1.14a27.566 27.566 0 0 0-7.51-4.027.098.098 0 0 0-.126.072l-.103.52a10.034 10.034 0 0 0-.2-.08c-.41-.153-1.275-.497-1.72-.282a.097.097 0 0 1-.01.052" fill="#000"/>
        <path d="M41.489 25.391c-.054.117.145.224.199.107l.032-.067c.204-.437.434-.858.69-1.266.026-.042.05-.084.078-.126a.079.079 0 0 0 .012-.052c-.005-.054-.064-.096-.123-.097a.096.096 0 0 0-.089.043c-.02.03-.038.063-.058.094-.261.414-.496.842-.703 1.285l-.038.08M38.617 22.276c.074-.02.11-.137.023-.184-.11-.059-.2.11-.097.173.002 0 .002.003.004.004a.09.09 0 0 0 .07.007M37.71 22.634c.08-.165.164-.329.245-.494a.096.096 0 0 0 .01-.052c-.008-.087-.137-.139-.185-.042a274.507 274.507 0 0 1-12.767 23.122 270.081 270.081 0 0 1-2.554 4.056l.214.032a274.395 274.395 0 0 0 12.968-22.51c.702-1.364 1.39-2.736 2.068-4.112M49.807 28.428c.033-.056.005-.107-.04-.13-.043-.022-.102-.018-.135.037l-.309.516a506.514 506.514 0 0 0-12.069 21.231l.222.004a506.522 506.522 0 0 1 12.33-21.658M49.637 4.508c.005-.013.013-.023.02-.033a.228.228 0 0 1 .074-.075.095.095 0 0 0 .045-.077.364.364 0 0 1 .301-.047c.109.032.25-.084.187-.132a.078.078 0 0 0-.026-.013c-.28-.081-.682.042-.782.312l.031-.047c.066-.098.227-.009.16.09l-.043.065a.102.102 0 0 0 .033-.043M56.871 9.144a.542.542 0 0 0 .082-.008.27.27 0 0 0 .143-.028.5.5 0 0 0 .239-.289c.071-.216-.106-.388-.274-.503a1.65 1.65 0 0 0-.068-.045c-.06-.037-.15.015-.144.088l.005.053a.115.115 0 0 0-.037.1l-.005.001a.749.749 0 0 0-.062.028.222.222 0 0 0-.11.067.484.484 0 0 0-.199.295.195.195 0 0 0-.002.062c.022.172.302.182.432.179M50.545 5.4l.006-.027a.094.094 0 0 0 .018-.023c.078-.136.151-.275.221-.416l.004-.01c.097.073.232-.064.134-.14a1.254 1.254 0 0 0-.068-.05c-.256-.174-.623-.284-.884-.076a.205.205 0 0 0-.07.108.367.367 0 0 0 .041.264c.099.178.334.213.42.396.03.063.113.059.155.015a.085.085 0 0 0 .023-.041M54.746 10.153a8.776 8.776 0 0 1-.382.756c-.023.04.038.075.062.035.147-.241.29-.483.427-.73.04-.07-.075-.133-.107-.06M54.312 9.928a6.568 6.568 0 0 0-.368.744c-.022.047.042.085.07.04.145-.233.293-.474.407-.723.034-.073-.067-.132-.11-.061M53.799 9.638c-.141.224-.25.472-.357.714-.02.045.042.082.067.038.13-.232.276-.455.404-.688.04-.074-.07-.135-.114-.064M53.358 9.408c-.12.187-.211.393-.298.598-.02.047.044.086.07.04.106-.196.227-.383.334-.578.04-.07-.064-.126-.106-.06M52.977 9.193a5.205 5.205 0 0 1-.274.48c-.023.035.03.075.057.044.122-.142.236-.297.32-.466.035-.068-.067-.126-.103-.058M52.662 9.017c-.08.102-.141.218-.208.329-.02.035.032.076.058.044.082-.1.171-.195.242-.303.035-.055-.052-.122-.092-.07M52.265 8.81c-.057.085-.095.185-.133.28-.019.049.04.082.07.04.06-.083.125-.167.167-.261.032-.071-.061-.124-.104-.06M51.913 8.611c-.057.086-.095.185-.133.28-.02.049.04.082.07.04.06-.083.125-.167.167-.261.032-.071-.061-.124-.104-.059M51.56 8.412c-.057.086-.094.185-.132.28-.02.05.04.082.07.04.06-.083.125-.167.167-.26.032-.072-.061-.124-.105-.06M51.208 8.214c-.057.085-.094.185-.132.28-.02.048.039.081.07.04.06-.083.124-.167.167-.261.031-.072-.062-.124-.105-.06" fill="#000"/>
        <path d="M32.355 23.956c.932-1.482 1.872-2.984 2.947-4.386.042-.072.086-.143.13-.213 1.039-1.27 1.796-2.79 2.96-3.952.64-.64 1.471-.843 2.316-1.058.875-.222 1.757-.447 2.643-.616.79-.15 1.597-.332 2.3-.744a3.7 3.7 0 0 0 .324-.213c.77-.568 1.276-1.422 1.76-2.253.236-.428.492-.847.738-1.27l.257-.441.485-.834c.101-.17.2-.341.298-.513l.145-.255c.046-.08.104-.151.146-.234l.002-.003c.012-.031.013-.06-.012-.085-.288-.276-.51-.574-.618-.971-.091-.339.021-.67.186-.972a3.794 3.794 0 0 1 .21-.342l.032-.05.044-.064c.066-.1-.095-.19-.161-.091l-.031.047c-.269.404-.515.827-.488 1.332.023.43.304.805.584 1.108l.025.028a.237.237 0 0 0-.035.028.426.426 0 0 0-.072.095l-.862 1.51-.906 1.59c-.456.8-.926 1.617-1.625 2.212-1.232 1.05-2.94 1.244-4.461 1.55-.37.074-.738.155-1.105.245-.78.19-1.503.392-2.132.917-.64.533-1.103 1.284-1.588 1.954-.359.496-.74.976-1.099 1.473-.177.246-.365.495-.515.76-.367.646-.836 1.226-1.254 1.84-2.896 4.251-13.346 22.463-15.903 27.107a7.1 7.1 0 0 0 .264.1c2.146-3.883 11.928-20.927 14.071-24.336M53.113 19.585a42.336 42.336 0 0 0-.193-.672c-.297-1.004-.539-2.02-.249-2.93.307-.966.86-1.84 1.32-2.729l.218-.422 1.168-2.262c.008-.014.001-.044.012-.055.02-.02.049 0 .07.008.037.012.079.016.118.023.08.015.16.026.24.033.88.076 1.902-.356 2.035-1.339v-.004c.01-.114-.163-.157-.179-.04-.02.148-.061.28-.117.397-.354.745-1.357.905-2.122.732l-.129-.032a.05.05 0 0 0-.017-.005c-.07.036-.118.161-.164.243l-1.153 2.231-.636 1.232c-.52 1.005-1.15 2.003-1.011 3.257.063.578.215 1.142.376 1.699.081.28.166.558.246.839.053.187.09.34.182.508.369.67.572 1.418.761 2.156.177.69.347 1.37.183 2.084-.376 1.643-1.29 3.117-1.81 4.711-.637 1.757-1.453 3.44-2.256 5.105-1.064 2.206-4.883 9.459-8.21 15.704.11-.003.219-.009.328-.012 3.742-7.046 8.176-15.566 9.486-18.556.288-.657.565-1.328.819-2.012a.113.113 0 0 0 .032-.04c.429-.855.737-1.793 1.096-2.68.31-.768.7-1.561.815-2.39.112-.817-.097-1.544-.345-2.315a34.898 34.898 0 0 0-.914-2.467M56.214 8.277c.005-.032-.027-.062-.058-.043-.069.04-.11.113-.156.178-.054.074-.111.148-.16.227l-.032.053c-.037.068.06.149.112.085.019-.023.034-.047.05-.071.036-.052.07-.104.102-.157.051-.083.128-.173.142-.272M55.53 8.006c-.078.116-.154.23-.235.343-.01.012-.018.025-.027.038-.057.077.075.153.13.073l.028-.041c.075-.113.143-.238.192-.363.024-.06-.05-.105-.088-.05M55.068 7.746c-.08.116-.162.232-.24.35l-.012.015c-.047.07.067.157.118.09l.024-.035c.084-.115.156-.25.207-.382.023-.06-.066-.083-.097-.038M54.48 7.457c-.091.098-.19.195-.273.3l-.006.008c-.055.071.038.171.102.101l.03-.038c.08-.093.152-.196.225-.293.04-.055-.029-.13-.078-.078M53.967 7.185c.02-.047-.041-.107-.078-.059-.045.058-.083.12-.123.18-.032.049-.068.095-.097.146a.445.445 0 0 0-.029.058c-.026.068.058.154.113.085a.526.526 0 0 0 .046-.07c.023-.04.042-.082.063-.125.036-.071.075-.141.105-.215M53.497 6.898c-.029.052-.053.105-.085.155-.038.061-.096.11-.143.165l-.003.004c-.055.073.043.17.11.101.007-.007.014-.017.021-.026a.88.88 0 0 0 .191-.363c.012-.055-.063-.085-.09-.036M53.042 6.623c-.076.111-.151.224-.229.334l-.012.018c-.047.067.072.138.113.064l.01-.017c.065-.119.133-.236.2-.353.03-.054-.049-.095-.082-.046M52.547 6.368c-.085.09-.175.18-.257.276l-.028.03c-.053.066.037.16.095.095.016-.018.03-.038.046-.057.074-.089.144-.183.215-.274.039-.05-.026-.118-.07-.07M52.026 6.055a7.879 7.879 0 0 0-.218.291l-.015.02c-.05.071.071.141.118.067l.01-.017c.063-.099.123-.201.18-.303.027-.047-.041-.102-.075-.058M51.55 5.78c-.062.095-.115.195-.178.289l-.009.013c-.047.07.08.14.113.063l.003-.008c.047-.105.104-.205.153-.31.027-.056-.05-.099-.083-.047M51.223 5.535c.024-.047-.045-.086-.072-.04-.055.094-.104.207-.175.29-.003.003-.003.006-.005.01-.039.06.05.115.088.062.004-.006.008-.01.01-.019.034-.105.103-.206.154-.303M10.345 50.497c-1.024.13-2.031-.045-2.959-.434-.868-.363-1.874-.968-1.922-1.89-.046-.875.875-1.587 1.65-1.991.91-.475 1.978-.671 3.03-.662.125.001.12-.158 0-.168a6.181 6.181 0 0 0-3.423.728c-.868.468-1.628 1.267-1.584 2.2.044.945 1.096 1.587 1.95 1.989 1.018.479 2.204.692 3.344.502.209-.035.116-.3-.086-.274M55.61 52.115c3.427-.25 6.76-.7 7.944-2.283.227-.303.317-.632.262-.953-.064-.38-.327-.733-.758-1.02a3.733 3.733 0 0 0-.976-.436c.31.106.603.238.863.404.427.271.678.627.726 1.027.05.427-.13.878-.507 1.272-1.418 1.478-4.845 1.761-7.6 1.988.013.002.03.003.046.001" fill="#000"/>
        <g transform="translate(55.329 46.912)">
            <mask id="0m9ml11thf" fill="#fff">
                <use xlink:href="#gpizc13kwe"/>
            </mask>
            <path d="M8.342 1.942c-.047-.4-.299-.755-.726-1.027a4.02 4.02 0 0 0-.863-.403c.388.117.718.264.977.436.43.287.693.64.758 1.019.055.321-.036.65-.262.953C7.042 4.503 3.708 4.953.282 5.204a.237.237 0 0 1-.047-.001c2.756-.227 6.182-.511 7.6-1.989.378-.393.558-.845.507-1.272m.311-.004c-.073-.427-.36-.819-.831-1.132C6.729.079 4.822 0 4.054 0h-.036c-.13 0-.19.074-.19.143 0 .069.06.143.19.144 1.503.015 2.75.288 3.509.771.383.244.607.557.648.905.045.374-.119.777-.46 1.133C6.339 4.529 2.943 4.809.214 5.034l-.02.002c-.19.016-.195.136-.194.16.004.101.117.178.262.178l.032-.001C3.76 5.12 7.135 4.66 8.36 3.023c.255-.341.356-.716.293-1.085" fill="#000" mask="url(#0m9ml11thf)"/>
        </g>
        <g transform="translate(27.686 55.85)">
            <mask id="7dlqv1baqh" fill="#fff">
                <use xlink:href="#627ifjp3gg"/>
            </mask>
            <path d="M12.464.247A30.64 30.64 0 0 1 6.369.78C4.262.75 2.195.432.135.003c-.136-.029-.193.171-.058.21C4.075 1.378 8.492 1.416 12.55.559c.202-.043.115-.348-.085-.311" fill="#000" mask="url(#7dlqv1baqh)"/>
        </g>
        <path d="M16.161 44.198a7.098 7.098 0 0 0-3.495.528c-.115.049-.07.24.053.194a7.874 7.874 0 0 1 3.442-.473c.16.013.156-.233 0-.25M50.453 47.985a.426.426 0 0 1-.002.269 1.01 1.01 0 0 0 .002-.27m-11.376 2.112c-.534 0-1.067-.003-1.601-.01l-.222-.004c-.204-.003-.409-.005-.613-.01-2.714-.05-5.43-.143-8.14-.276-1.95-.095-3.899-.247-5.828-.54l-.214-.032a37.246 37.246 0 0 1-2.008-.374c-.702-.152-1.458-.305-2.167-.558a7.1 7.1 0 0 1-.264-.1 5.449 5.449 0 0 1-.716-.346 2.742 2.742 0 0 1-.366-.278.877.877 0 0 1-.252-.593c-.02-.396.377-.542.68-.643.196-.065.117-.362-.085-.313-.777.188-1.282.708-.97 1.543.323.86 1.317 1.012 2.11 1.074l.056.003c.218.07.438.132.655.192.831.231 1.673.417 2.522.572.46.084.922.16 1.385.227 2.604.38 5.237.496 7.864.594 2.591.097 5.189.196 7.785.204 2.879.01 5.755-.094 8.618-.442.373-.045.761-.1 1.144-.182.174.006.38-.07.55-.143.6-.187 1.157-.474 1.582-.954.297-.334.307-.774.027-1.112-.282-.341-.844-.414-1.251-.442a.154.154 0 0 0-.097.023c-.564-.063-1.188.006-1.543.071-.204.038-.147.35.048.354.388.008.779.02 1.161.09.308.057.677.076.917.304.274.26-.31.844-.47.996-.05.047-.314.232-.56.37a9.74 9.74 0 0 1-.093.027c-1.235.357-2.593.404-3.867.504-.909.072-1.819.12-2.73.153-.11.003-.219.009-.328.012a87.87 87.87 0 0 1-2.719.039" fill="#000"/>
        <path d="M30.76 48.079c.065.036.133.07.201.103a.672.672 0 0 0 .202.063.33.33 0 0 0 .186-.027.358.358 0 0 0 .155-.166.666.666 0 0 0 .084-.336.909.909 0 0 0-.073-.331 1.349 1.349 0 0 0-.19-.314 2.387 2.387 0 0 0-.261-.28 3.02 3.02 0 0 0-.553-.4c-.03.058-.072.073-.125.044a.212.212 0 0 1-.076-.068.24.24 0 0 0-.086-.072.468.468 0 0 0-.319-.048.361.361 0 0 0-.254.19.524.524 0 0 0-.063.32c.014.108.05.217.108.326.058.109.132.214.223.317a3.44 3.44 0 0 0 .84.679m-.083.22c-.092-.05-.176-.1-.25-.15a2.228 2.228 0 0 1-.215-.16 4.177 4.177 0 0 1-.41-.395 1.992 1.992 0 0 1-.338-.507 1.158 1.158 0 0 1-.089-.315.464.464 0 0 1 .047-.285l.147-.276a.762.762 0 0 1 .04-.043.647.647 0 0 1 .26-.118.582.582 0 0 1 .286.026c.1.03.198.055.292.076.095.022.187.057.277.106.107.059.212.12.314.182.102.063.207.124.314.182l.035.02.055.027a1.293 1.293 0 0 1 .09.047l.079.034c.034.016.072.031.115.046l.133.047c.045.016.087.028.126.037.04.008.074.012.103.01.029 0 .048-.01.057-.028a.922.922 0 0 0 .077-.2.67.67 0 0 0 .023-.217 4.546 4.546 0 0 0-.03-.194l-.007-.054a.452.452 0 0 1-.004-.052c0-.013.003-.027.012-.042a.07.07 0 0 1 .03-.03c.014-.007.029-.007.044.002.05.027.083.081.096.162.014.08.018.167.013.262a1.637 1.637 0 0 1-.038.273.825.825 0 0 1-.06.188c-.026.048-.073.076-.14.084a.9.9 0 0 1-.222-.006 2.324 2.324 0 0 1-.243-.046 2.022 2.022 0 0 0-.205-.041c.071.079.128.169.171.271.043.102.072.207.088.316.016.109.016.217 0 .326a.912.912 0 0 1-.098.302.546.546 0 0 1-.197.221.512.512 0 0 1-.242.073.721.721 0 0 1-.266-.042 1.746 1.746 0 0 1-.27-.119" fill="#000"/>
        <path d="M32.1 45.809c.013.007.034.02.063.04a9.777 9.777 0 0 0 .192.13l.066.048a.914.914 0 0 1 .064.039.32.32 0 0 0 .026-.14c0-.063-.005-.131-.017-.207a2.48 2.48 0 0 0-.125-.469 1.177 1.177 0 0 0-.092-.189.303.303 0 0 0-.103-.112c-.011-.006-.031-.006-.06 0a.51.51 0 0 0-.165.063.123.123 0 0 0-.05.045.27.27 0 0 0-.074.167.684.684 0 0 0 .107.446c.044.067.1.113.168.139zm.474-.578a25.741 25.741 0 0 0 .083.38c.01.045.014.076.016.095l.001.05.005.094c.002.036.003.071.002.106v.084l-.002.072a.133.133 0 0 1-.018.054.247.247 0 0 1-.094.092.121.121 0 0 1-.128.005l-.355-.193-.215-.177a1.222 1.222 0 0 1-.181-.206.547.547 0 0 1-.083-.195.545.545 0 0 1 .003-.215c.015-.076.038-.163.067-.261a.75.75 0 0 1 .007-.052.87.87 0 0 0 .007-.053l.024-.046a.216.216 0 0 1 .074-.082.488.488 0 0 1 .103-.05l-.615-.549a.429.429 0 0 1-.1-.054.888.888 0 0 1-.117-.096.46.46 0 0 1-.086-.109c-.02-.037-.023-.068-.008-.095a.105.105 0 0 1 .077-.058.127.127 0 0 1 .102.032l.979.765a1.675 1.675 0 0 0 .513.43c.046.025.094.047.143.065.05.019.098.029.146.03a.268.268 0 0 0 .132-.029.25.25 0 0 0 .103-.11 1.173 1.173 0 0 0 .11-.785.028.028 0 0 0 .004-.011.03.03 0 0 1 .003-.01.08.08 0 0 1 .042-.038.207.207 0 0 0 .02.009.164.164 0 0 1 .096.106.556.556 0 0 1 .026.158 1.07 1.07 0 0 1-.01.187c-.01.065-.021.128-.035.19a1.283 1.283 0 0 1-.096.285.5.5 0 0 1-.142.173.391.391 0 0 1-.176.072.564.564 0 0 1-.201-.01 1.425 1.425 0 0 1-.217-.066l-.009.016z" fill="#000"/>
        <path d="m33.308 44.208-.4-.347a2.339 2.339 0 0 1-.195-.155 1.332 1.332 0 0 1-.157-.163.738.738 0 0 1-.095-.148c-.021-.046-.024-.083-.008-.112a.088.088 0 0 1 .08-.05c.035-.001.068.007.096.022l.04.022.598.618a.875.875 0 0 0 .22.167.379.379 0 0 1 .026.016c.01.007.022.013.034.016a.08.08 0 0 0 .034.004.028.028 0 0 0 .023-.015.231.231 0 0 0 .024-.084 1.251 1.251 0 0 0 .007-.208 1.244 1.244 0 0 0-.004-.076 1.608 1.608 0 0 0-.06-.366 1.322 1.322 0 0 0-.056-.168 2.727 2.727 0 0 0-.081-.177.94.94 0 0 0-.066-.088 23.407 23.407 0 0 0-.226-.256 3.698 3.698 0 0 1-.113-.13.737.737 0 0 1-.078-.111c-.018-.033-.022-.058-.013-.076.012-.022.024-.036.037-.042a.085.085 0 0 1 .044-.006.278.278 0 0 1 .05.01.206.206 0 0 0 .05.009c.004-.001.01-.005.018-.013a.323.323 0 0 1 .018-.015c.019-.019.03-.027.035-.026.005.001.01.005.014.01.005.005.008.007.01.005a.228.228 0 0 0 .021-.035l.006-.01a10.442 10.442 0 0 1 .09-.233c.016-.04.034-.09.055-.15l.177.01a4.302 4.302 0 0 1-.046.185.932.932 0 0 1-.113.27 9.068 9.068 0 0 1-.097.16l.005.028c.081.099.153.193.216.283.064.09.117.184.16.282.042.098.077.2.103.307.026.107.04.224.043.352.002.08.002.162 0 .244a.505.505 0 0 1-.06.225.24.24 0 0 1-.078.092.19.19 0 0 1-.096.031.273.273 0 0 1-.105-.016.727.727 0 0 1-.108-.049l-.08-.043zM33.93 42.225a.494.494 0 0 1-.048-.053 7.022 7.022 0 0 0-.146-.17 13.615 13.615 0 0 1-.047-.055.217.217 0 0 1-.049-.076c-.004-.018.003-.044.02-.077.02-.035.044-.052.074-.05.03.002.061.012.094.03a.537.537 0 0 1 .143.11c.038.042.075.086.112.132.036.045.077.091.122.137a.726.726 0 0 0 .21.147.443.443 0 0 0 .051.023.13.13 0 0 0 .05.01c.015 0 .026-.005.032-.016a.541.541 0 0 0 .059-.193 1.577 1.577 0 0 0-.009-.438 5.32 5.32 0 0 1-.024-.195.167.167 0 0 0-.014-.053 3.53 3.53 0 0 0-.02-.039.132.132 0 0 1-.013-.04c-.003-.013.002-.031.014-.054a.147.147 0 0 1 .056-.061c.022-.012.049-.01.08.007a.394.394 0 0 1 .035.021.05.05 0 0 1 .02.034c.005.006.01.02.012.04a4.929 4.929 0 0 0 .02.124.14.14 0 0 1 .003.04.074.074 0 0 0-.002.023l-.001.023.004.012c.001.005.003.009.005.01.01.065.019.135.026.209.007.074.01.149.007.225-.002.076-.01.15-.024.224a.715.715 0 0 1-.07.204c-.029.053-.064.086-.107.099a.28.28 0 0 1-.136.005.576.576 0 0 1-.144-.049 2.88 2.88 0 0 1-.126-.064l-.268-.206zm-.778-.631c-.04-.022-.062-.044-.067-.066-.005-.023.004-.054.025-.094a.187.187 0 0 1 .043-.054c.019-.015.042-.015.07 0 .03.016.048.044.057.085.01.04.007.074-.007.1-.014.027-.032.042-.055.044a.114.114 0 0 1-.066-.015z" fill="#000"/>
        <path d="M34.655 41.449a1.312 1.312 0 0 1-.277-.252 1.325 1.325 0 0 1-.183-.284.864.864 0 0 1-.079-.258c-.01-.078.005-.133.043-.167a.555.555 0 0 0-.011-.094.144.144 0 0 1 .088-.104.41.41 0 0 1 .315.013c.028.015.042.037.041.065a.193.193 0 0 1-.024.086.101.101 0 0 1-.037.04.16.16 0 0 1-.046.02.979.979 0 0 0-.05.013.102.102 0 0 0-.046.03l-.002.004-.005.01.007.023a4.638 4.638 0 0 1 .087.234 1.3 1.3 0 0 0 .074.175.65.65 0 0 0 .104.147.67.67 0 0 0 .197.14.539.539 0 0 0 .04.02.566.566 0 0 1 .04.02l.03.015a.077.077 0 0 0 .07-.01c.022-.016.043-.03.064-.041a2.453 2.453 0 0 1 .054-.094c.043-.08.08-.181.113-.303a2.88 2.88 0 0 0 .075-.382c.017-.132.022-.263.016-.392a1.163 1.163 0 0 0-.058-.332.283.283 0 0 0-.054-.074 1.398 1.398 0 0 1-.072-.082.447.447 0 0 1-.055-.084c-.014-.027-.013-.057.004-.088.015-.028.037-.04.064-.036a.242.242 0 0 1 .073.026c.07.038.125.09.164.155a.793.793 0 0 1 .086.212c.019.076.03.154.032.234.002.08 0 .154-.005.223-.004.018-.01.058-.018.12l-.027.202-.029.21a4.46 4.46 0 0 0-.019.15 1.385 1.385 0 0 1-.023.103l-.02.074a.431.431 0 0 1-.025.066 1.72 1.72 0 0 1-.039.076.636.636 0 0 1-.135.181.322.322 0 0 1-.153.077.417.417 0 0 1-.178-.009 1.183 1.183 0 0 1-.21-.078" fill="#000"/>
        <path d="M35.082 38.936c.016.065.033.12.05.162.019.043.041.081.067.114a.859.859 0 0 0 .091.096c.034.032.074.068.121.107a.802.802 0 0 0-.042-.158.544.544 0 0 0-.158-.225 1.244 1.244 0 0 0-.13-.096zm.393.827a2.53 2.53 0 0 0-.153-.15 3.93 3.93 0 0 0-.099-.088.813.813 0 0 1-.339-.371.484.484 0 0 1-.06-.199.395.395 0 0 1 .052-.222c.015-.028.037-.043.064-.044.027 0 .055 0 .084.005a1.222 1.222 0 0 0 .097.049c.094.051.173.106.235.164a.816.816 0 0 1 .154.196c.04.072.073.15.097.235.025.085.047.178.069.281a.998.998 0 0 0 .056.053l.007.003c.04.022.075.033.106.032a.17.17 0 0 0 .087-.023.213.213 0 0 0 .069-.065 1.175 1.175 0 0 0 .174-.417.883.883 0 0 0 .002-.338.644.644 0 0 0-.026-.067 9.778 9.778 0 0 1-.036-.087.465.465 0 0 1-.028-.088.111.111 0 0 1 .01-.076c.011-.022.027-.03.047-.026a.27.27 0 0 1 .168.141.556.556 0 0 1 .054.18c.008.065.01.136.003.211a1.745 1.745 0 0 1-.083.41c-.02.059-.04.107-.06.144a.749.749 0 0 1-.215.263c-.08.057-.186.07-.318.035l-.218-.14zM37.384 37.272l-.597-.472-.092-.05-.401-.304c-.005-.012-.004-.027.004-.045a.853.853 0 0 1 .018-.037.156.156 0 0 1 .051-.052c.025-.017.047-.02.067-.009l.223.122a5.707 5.707 0 0 1-.063-.279.43.43 0 0 0-.02-.066.387.387 0 0 1-.009-.119.273.273 0 0 1 .03-.11.219.219 0 0 1 .14-.119.242.242 0 0 1 .18.028c.004.002.007.004.007.006s.003.004.008.006l.013.007.494.433.267.145a.7.7 0 0 0 .073-.237 1.432 1.432 0 0 0-.03-.54 2.126 2.126 0 0 0-.072-.242l.007-.013a.058.058 0 0 1 .035-.03.058.058 0 0 1 .046.005.29.29 0 0 1 .117.127.76.76 0 0 1 .068.195c.015.073.024.152.026.237.002.086 0 .167-.008.245-.007.077-.02.15-.036.218a.714.714 0 0 1-.058.165.21.21 0 0 1-.077.087.163.163 0 0 1-.09.022.288.288 0 0 1-.096-.023 1.072 1.072 0 0 1-.101-.049l-.043-.023-.568-.477-.109-.059a.272.272 0 0 0-.015.195c.018.077.05.154.093.231a1.841 1.841 0 0 0 .348.437l.112.092a22.538 22.538 0 0 0 .192.15c.014.005.022.014.023.028a.121.121 0 0 1-.004.043.188.188 0 0 1-.017.044 3.626 3.626 0 0 1-.019.035.214.214 0 0 1-.041.054c-.018.016-.04.017-.066.003l-.01-.005z" fill="#000"/>
        <path d="M37.374 34.647c.016.066.033.12.05.163a.48.48 0 0 0 .068.113.848.848 0 0 0 .09.097l.121.106a.81.81 0 0 0-.042-.158.548.548 0 0 0-.158-.225 1.247 1.247 0 0 0-.13-.096zm.394.827a2.784 2.784 0 0 0-.154-.15 3.532 3.532 0 0 0-.099-.088.819.819 0 0 1-.338-.371.483.483 0 0 1-.062-.199.394.394 0 0 1 .053-.221c.015-.03.037-.044.064-.045.027 0 .055 0 .084.005a1.347 1.347 0 0 0 .097.049c.095.051.173.106.235.164a.815.815 0 0 1 .154.196c.041.072.073.15.098.235.024.085.046.179.068.282a.856.856 0 0 0 .056.052l.007.004c.04.021.075.032.106.032a.17.17 0 0 0 .087-.024.213.213 0 0 0 .069-.065 1.176 1.176 0 0 0 .174-.417.88.88 0 0 0 .002-.338.605.605 0 0 0-.025-.067 11.446 11.446 0 0 1-.037-.087.468.468 0 0 1-.027-.087.111.111 0 0 1 .009-.077c.011-.022.027-.03.047-.026a.268.268 0 0 1 .168.141.551.551 0 0 1 .054.18c.008.066.01.136.003.211a1.764 1.764 0 0 1-.083.41c-.02.059-.04.107-.06.145a.75.75 0 0 1-.215.262c-.08.058-.186.07-.317.035l-.218-.14z" fill="#000"/>
        <path d="M38.03 33.419c.016.065.033.12.051.162.018.043.04.081.067.114a.859.859 0 0 0 .09.096 4.1 4.1 0 0 0 .122.107.81.81 0 0 0-.043-.158.544.544 0 0 0-.158-.225 1.247 1.247 0 0 0-.129-.096zm.394.827a2.54 2.54 0 0 0-.153-.15 3.957 3.957 0 0 0-.1-.088.808.808 0 0 1-.338-.371.484.484 0 0 1-.061-.199.396.396 0 0 1 .052-.222c.016-.028.037-.043.065-.044.027 0 .055 0 .084.005a1.216 1.216 0 0 0 .097.049c.094.051.172.106.234.164a.816.816 0 0 1 .155.196c.04.072.073.15.097.235.024.085.047.178.068.281a1.145 1.145 0 0 0 .057.053l.006.003c.04.022.075.033.106.032a.17.17 0 0 0 .087-.023.21.21 0 0 0 .07-.065 1.172 1.172 0 0 0 .174-.417.885.885 0 0 0 .001-.338.637.637 0 0 0-.025-.068l-.037-.086a.483.483 0 0 1-.027-.088.112.112 0 0 1 .01-.076c.01-.022.027-.03.047-.026a.269.269 0 0 1 .168.141.549.549 0 0 1 .053.18c.009.065.01.136.004.211a1.769 1.769 0 0 1-.083.41.996.996 0 0 1-.06.144.75.75 0 0 1-.215.263c-.08.057-.186.07-.318.034l-.218-.14z" fill="#000"/>
        <path d="M39.052 32.801c.013.007.034.02.063.04a8.056 8.056 0 0 0 .192.131c.03.02.052.036.066.047a.84.84 0 0 1 .064.04.32.32 0 0 0 .026-.141c0-.063-.005-.131-.017-.207a2.48 2.48 0 0 0-.125-.469 1.181 1.181 0 0 0-.092-.189.303.303 0 0 0-.103-.112c-.011-.006-.031-.006-.06 0a.522.522 0 0 0-.165.064.121.121 0 0 0-.05.044.27.27 0 0 0-.074.167.687.687 0 0 0 .107.446c.044.067.1.113.168.139zm.474-.577a19.586 19.586 0 0 0 .083.38c.01.044.015.076.016.094a1.598 1.598 0 0 0 .006.144c.002.036.003.071.002.107v.083l-.002.072a.129.129 0 0 1-.018.054.247.247 0 0 1-.094.093.121.121 0 0 1-.128.005l-.355-.194-.215-.177a1.218 1.218 0 0 1-.181-.206.547.547 0 0 1-.083-.195.545.545 0 0 1 .003-.215c.015-.076.038-.163.067-.261a.75.75 0 0 1 .007-.052.846.846 0 0 0 .007-.052l.024-.047a.216.216 0 0 1 .074-.082.482.482 0 0 1 .103-.049l-.615-.55a.425.425 0 0 1-.1-.054.895.895 0 0 1-.117-.096.457.457 0 0 1-.086-.109c-.02-.037-.023-.068-.009-.095a.105.105 0 0 1 .078-.058c.035-.006.068.005.102.032l.979.765a1.668 1.668 0 0 0 .513.43c.046.025.094.047.143.065.05.019.098.029.146.03a.268.268 0 0 0 .132-.028.25.25 0 0 0 .103-.111 1.174 1.174 0 0 0 .11-.785.028.028 0 0 0 .004-.01l.003-.012a.08.08 0 0 1 .042-.037.183.183 0 0 0 .02.009.22.22 0 0 1 .02.009c.036.02.061.051.076.097a.557.557 0 0 1 .026.158c.002.06-.001.122-.01.187-.01.065-.021.129-.035.191a1.29 1.29 0 0 1-.096.284.5.5 0 0 1-.142.174.391.391 0 0 1-.176.07.561.561 0 0 1-.201-.008 1.416 1.416 0 0 1-.217-.067l-.009.017z" fill="#000"/>
        <path d="M39.66 30.37c.016.065.033.12.05.162.019.043.041.081.067.114a.87.87 0 0 0 .091.096c.034.032.075.068.121.107a.802.802 0 0 0-.042-.158.552.552 0 0 0-.158-.225 1.273 1.273 0 0 0-.129-.097zm.394.827a2.47 2.47 0 0 0-.154-.15 4.156 4.156 0 0 0-.099-.088.816.816 0 0 1-.339-.371.488.488 0 0 1-.06-.199.396.396 0 0 1 .052-.222c.015-.029.037-.043.064-.044.027 0 .055 0 .084.005a1.272 1.272 0 0 0 .097.049c.095.051.173.106.235.164a.822.822 0 0 1 .154.196c.041.072.073.15.097.235.025.085.047.178.069.281a1.007 1.007 0 0 0 .057.053l.006.003c.04.022.075.033.106.032a.17.17 0 0 0 .087-.023.21.21 0 0 0 .069-.065 1.177 1.177 0 0 0 .174-.417.885.885 0 0 0 .002-.338.654.654 0 0 0-.025-.068 9.726 9.726 0 0 1-.037-.086.466.466 0 0 1-.027-.088.111.111 0 0 1 .009-.076c.011-.022.027-.03.047-.026a.268.268 0 0 1 .169.141.551.551 0 0 1 .053.18c.008.065.01.136.003.211a1.77 1.77 0 0 1-.083.41c-.02.059-.04.107-.06.144a.748.748 0 0 1-.215.263c-.08.057-.186.07-.318.034l-.217-.14z" fill="#000"/>
        <path d="M40.682 29.752c.013.007.034.02.063.04a7.618 7.618 0 0 0 .191.131c.03.02.052.036.066.047a.91.91 0 0 1 .064.039.317.317 0 0 0 .026-.14 1.168 1.168 0 0 0-.017-.207 2.478 2.478 0 0 0-.124-.469 1.186 1.186 0 0 0-.092-.189.303.303 0 0 0-.104-.112c-.01-.006-.03-.006-.06 0a.522.522 0 0 0-.165.064.122.122 0 0 0-.049.044.271.271 0 0 0-.074.167.687.687 0 0 0 .107.446c.044.067.1.113.168.139zm.474-.577.022.093a19.575 19.575 0 0 0 .061.286c.009.045.014.077.016.095v.05l.005.094c.003.036.004.071.003.106v.084l-.002.072a.133.133 0 0 1-.019.054.245.245 0 0 1-.094.092.121.121 0 0 1-.128.006l-.355-.194-.215-.177a1.223 1.223 0 0 1-.18-.206.547.547 0 0 1-.083-.195.545.545 0 0 1 .003-.215 2.79 2.79 0 0 1 .067-.261.85.85 0 0 1 .007-.052.846.846 0 0 0 .006-.052l.025-.047a.216.216 0 0 1 .073-.082.485.485 0 0 1 .103-.05l-.615-.549a.422.422 0 0 1-.1-.054.889.889 0 0 1-.116-.096.458.458 0 0 1-.086-.109c-.02-.037-.023-.068-.009-.095a.105.105 0 0 1 .078-.058c.034-.006.068.005.102.032l.978.765a1.68 1.68 0 0 0 .514.43c.046.025.093.047.143.065.05.019.098.029.145.03a.268.268 0 0 0 .132-.029.25.25 0 0 0 .104-.11 1.171 1.171 0 0 0 .11-.785.028.028 0 0 0 .003-.01c0-.004.002-.007.004-.012a.079.079 0 0 1 .041-.037.212.212 0 0 0 .02.009.23.23 0 0 1 .021.009c.035.02.06.051.076.097a.552.552 0 0 1 .026.158c.002.06-.002.122-.011.187-.01.065-.02.129-.034.191a1.322 1.322 0 0 1-.097.284.5.5 0 0 1-.141.173.391.391 0 0 1-.176.072.561.561 0 0 1-.202-.01 1.407 1.407 0 0 1-.216-.066l-.01.017z" fill="#000"/>
    </g>
</svg>
